<?xml version="1.0" standalone="no"?><!DOCTYPE svg PUBLIC "-//W3C//DTD SVG 1.1//EN" "http://www.w3.org/Graphics/SVG/1.1/DTD/svg11.dtd"><svg t="1587812776676" class="icon" viewBox="0 0 1024 1024" version="1.1" xmlns="http://www.w3.org/2000/svg" p-id="6467" xmlns:xlink="http://www.w3.org/1999/xlink" width="1024" height="1024"><defs><style type="text/css"></style></defs><path d="M966.656 399.36L575.488 86.016c-36.864-30.72-90.112-30.72-129.024 0l-389.12 313.344c-22.528 18.432-30.72 47.104-20.48 73.728 10.24 28.672 34.816 45.056 65.536 45.056h30.72v360.448c0 45.056 45.056 81.92 100.352 81.92h124.928c2.048 0 6.144 0 8.192-2.048h4.096c12.288 0 20.48-8.192 20.48-20.48V675.84c0-20.48 18.432-36.864 40.96-36.864h155.648c22.528 0 40.96 16.384 40.96 36.864v266.24c0 12.288 8.192 20.48 20.48 20.48h137.216c55.296 0 100.352-36.864 100.352-81.92V518.144h38.912c30.72 0 55.296-18.432 65.536-45.056 6.144-26.624-2.048-55.296-24.576-73.728z m-16.384 59.392c-4.096 8.192-12.288 18.432-26.624 18.432H864.256c-12.288 0-20.48 8.192-20.48 20.48v380.928c0 22.528-26.624 40.96-59.392 40.96h-116.736V675.84c0-43.008-36.864-77.824-81.92-77.824H430.08c-45.056 0-81.92 34.816-81.92 77.824v243.712h-116.736c-32.768 0-59.392-18.432-59.392-40.96V497.664c0-12.288-8.192-20.48-20.48-20.48H100.352c-16.384 0-24.576-10.24-26.624-18.432-4.096-10.24 0-20.48 8.192-26.624L473.088 116.736c22.528-18.432 55.296-18.432 77.824 0L942.08 432.128c8.192 6.144 12.288 16.384 8.192 26.624z" p-id="6468" fill="#ffffff"></path></svg>