<?xml version="1.0" standalone="no"?><!DOCTYPE svg PUBLIC "-//W3C//DTD SVG 1.1//EN" "http://www.w3.org/Graphics/SVG/1.1/DTD/svg11.dtd"><svg t="1587812657848" class="icon" viewBox="0 0 1024 1024" version="1.1" xmlns="http://www.w3.org/2000/svg" p-id="4991" xmlns:xlink="http://www.w3.org/1999/xlink" width="1024" height="1024"><defs><style type="text/css"></style></defs><path d="M510.636292 651.339772c115.730017 0 209.873264-119.256692 209.873264-265.839468 0-146.591807-94.140989-265.841725-209.873264-265.841725s-209.875521 119.247661-209.875521 265.841725c-0.002258 146.582775 94.140989 265.839467 209.875521 265.839468z m0-475.712731c83.430013 0 153.90706 96.109785 153.90706 209.875521 0 113.763478-70.477047 209.875521-153.90706 209.875522-83.432271 0-153.909318-96.112043-153.909318-209.875522 0-113.765736 70.477047-209.875521 153.909318-209.875521z" fill="#ffffff" p-id="4992"></path><path d="M956.932222 866.351775l-55.966204-167.898611a28.014711 28.014711 0 0 0-18.857097-18.062354l-195.883971-55.963946a28.064382 28.064382 0 0 0-20.209516 1.883001l-155.3814 77.692957-155.383657-77.692957a28.095992 28.095992 0 0 0-20.223063-1.883001l-195.883971 55.963946a28.032773 28.032773 0 0 0-18.84355 18.062354l-55.966204 167.898611a27.983102 27.983102 0 0 0 3.854055 25.21053 27.937946 27.937946 0 0 0 22.695348 11.625383h839.495312c8.992794 0 17.450492-4.316903 22.697606-11.625383a27.971813 27.971813 0 0 0 3.856312-25.21053z m-827.228716-19.128033l39.023715-117.071147 171.233373-48.915112 158.158487 79.083759a28.007938 28.007938 0 0 0 25.029907 0l158.142682-79.083759 171.249178 48.915112 39.023715 117.071147H129.703506z" fill="#ffffff" p-id="4993"></path></svg>